<mxfile host="app.diagrams.net" modified="2023-11-15T07:33:31.759Z" agent="Mozilla/5.0 (Windows NT 10.0; Win64; x64) AppleWebKit/537.36 (KHTML, like Gecko) Chrome/116.0.0.0 Safari/537.36" version="22.1.1" etag="nxUZKh_iW5FyXZ7z5A9z" type="github">
  <diagram name="Trang-1" id="4cMmMiKOkp8362H8vX_L">
    <mxGraphModel>
      <root>
        <mxCell id="0" />
        <mxCell id="1" parent="0" />
      </root>
    </mxGraphModel>
  </diagram>
</mxfile>
